#!OML:ASF E:\Steps\Project 1\Capture day 1\Session 2\Subject.ASF
:FULLY-SPECIFIED
:DEGREES
369
root 11.4808 16.3365 11.65 -152.566 2.52643 536.588
lowerback -25.9753 -2.05299 -4.71169
upperback -4.86485 -0.124617 -1.06509
thorax 9.05436 0.321557 1.56098
lowerneck 0.462794 -0.639076 -4.21817
upperneck 8.88506 -0.879117 7.08458
head 2.85772 -0.189984 3.07704
rclavicle 4.47266e-015 -7.15625e-015
rhumerus -35.3576 -14.2357 -77.8034
rradius 24.4811
rwrist 5.38284
rhand 0.301679 -48.9228
rfingers 7.12502
rthumb 25.8793 -77.1817
lclavicle 4.47266e-015 -7.15625e-015
lhumerus -29.1761 -9.80619 90.2849
lradius 22.8346
lwrist -2.22333
lhand -20.2352 -18.6961
lfingers 7.12502
lthumb 6.11276 11.1957
rfemur -31.4027 12.1021 15.4906
rtibia 18.4179
rfoot -25.0035 -10.649
rtoes -21.692
lfemur -35.3423 -13.5639 -19.926
ltibia 14.7904
lfoot -8.54363 3.4776
ltoes -38.1896
370
root 11.4825 16.3296 11.6402 -152.086 2.57593 536.737
lowerback -26.4424 -2.00244 -4.55808
upperback -4.97652 -0.0279096 -1.08333
thorax 9.16237 0.390468 1.48778
lowerneck 0.406164 -0.657089 -4.19938
upperneck 8.89155 -0.903939 7.08774
head 2.87189 -0.200999 3.07462
rclavicle -1.59028e-014 1.92821e-014
rhumerus -36.0702 -14.7967 -77.4188
rradius 24.266
rwrist 5.56186
rhand 0.159884 -48.968
rfingers 7.12502
rthumb 25.7435 -77.2467
lclavicle -1.59028e-014 1.92821e-014
lhumerus -29.8353 -8.06334 89.6665
lradius 22.1954
lwrist -2.73419
lhand -20.293 -17.7265
lfingers 7.12502
lthumb 6.05696 12.1669
rfemur -32.0546 12.2808 15.5058
rtibia 18.6954
rfoot -25.1041 -10.781
rtoes -21.7386
lfemur -35.8066 -13.1603 -19.7761
ltibia 14.6938
lfoot -8.12497 3.17119
ltoes -37.3572
371
root 11.4979 16.3358 11.6528 -151.666 1.87567 536.465
lowerback -26.6943 -2.33877 -4.94435
upperback -4.94857 -0.319949 -1.06697
thorax 9.34271 0.247836 1.63009
lowerneck 0.235446 -0.667777 -4.1189
upperneck 8.87126 -0.921142 7.0781
head 2.89658 -0.20733 3.05652
rclavicle 2.80783e-015 -2.66371e-014
rhumerus -36.457 -15.567 -77.0269
rradius 23.9499
rwrist 5.89847
rhand 0.131905 -49.212
rfingers 7.12502
rthumb 25.7167 -77.4945
lclavicle 2.80783e-015 -2.66371e-014
lhumerus -30.1406 -6.41118 89.0098
lradius 21.5279
lwrist -2.95421
lhand -20.0518 -17.2818
lfingers 7.12502
lthumb 6.28978 12.6048
rfemur -32.3697 11.8715 15.3825
rtibia 18.5877
rfoot -25.171 -11.0604
rtoes -21.2144
lfemur -36.465 -12.7253 -20.0927
ltibia 14.9375
lfoot -7.61952 1.88777
ltoes -36.1002
372
root 11.4818 16.334 11.5972 -152.044 2.61302 536.784
lowerback -26.7424 -1.85689 -4.56044
upperback -4.8401 0.187911 -1.19819
thorax 9.45806 0.480658 1.4343
lowerneck -0.0265815 -0.717651 -3.98713
upperneck 8.91332 -0.991408 7.05992
head 2.96223 -0.23561 3.02647
rclavicle -4.02539e-015 2.127e-014
rhumerus -37.3851 -16.073 -76.5889
rradius 23.6864
rwrist 6.2111
rhand 0.384352 -49.5018
rfingers 7.12502
rthumb 25.9585 -77.7492
lclavicle -4.02539e-015 2.127e-014
lhumerus -30.8265 -4.77823 88.3049
lradius 20.8684
lwrist -2.9214
lhand -20.0878 -17.0105
lfingers 7.12502
lthumb 6.25504 12.8772
rfemur -31.7239 11.913 15.683
rtibia 18.3167
rfoot -25.167 -10.1691
rtoes -21.1897
lfemur -35.3347 -12.503 -20.0507
ltibia 14.0244
lfoot -7.25546 2.53226
ltoes -35.9398
373
root 11.4967 16.3348 11.6124 -151.562 2.04989 536.52
lowerback -26.5858 -2.22775 -4.98428
upperback -5.23616 -0.120547 -1.10546
thorax 8.9522 0.379002 1.68076
lowerneck 0.00241256 -0.709233 -4.05755
upperneck 8.94941 -0.977561 7.05943
head 2.96927 -0.229994 3.04047
rclavicle -3.97569e-016 -1.88845e-014
rhumerus -38.5064 -16.4302 -75.9827
rradius 23.4612
rwrist 6.59288
rhand 0.450307 -49.4216
rfingers 7.12502
rthumb 26.0216 -77.6597
lclavicle -3.97569e-016 -1.88845e-014
lhumerus -31.8011 -3.13496 87.6965
lradius 20.2198
lwrist -3.05257
lhand -21.6406 -17.3002
lfingers 7.12502
lthumb 4.75581 12.6264
rfemur -32.1992 11.7293 15.4517
rtibia 18.2613
rfoot -25.0784 -10.6374
rtoes -20.5398
lfemur -36.0694 -11.9505 -20.4181
ltibia 14.2997
lfoot -6.95945 1.28416
ltoes -36.4272
374
root 11.5009 16.3353 11.5956 -151.494 1.91237 536.409
lowerback -26.6416 -2.30592 -5.15836
upperback -5.33118 -0.143561 -1.11021
thorax 8.87661 0.379927 1.76905
lowerneck -0.013733 -0.706217 -4.10825
upperneck 8.97668 -0.9718 7.0524
head 2.98187 -0.228232 3.04842
rclavicle 8.02593e-015 -2.38542e-014
rhumerus -39.4664 -17.1023 -75.3281
rradius 23.1278
rwrist 7.08798
rhand 0.175342 -49.2131
rfingers 7.12502
rthumb 25.7583 -77.4896
lclavicle 8.02593e-015 -2.38542e-014
lhumerus -32.6717 -1.73854 87.0335
lradius 19.5296
lwrist -3.39052
lhand -21.9159 -16.4228
lfingers 7.12502
lthumb 4.48996 13.5097
rfemur -32.0963 11.747 15.3357
rtibia 18.0739
rfoot -24.9138 -10.7949
rtoes -20.2386
lfemur -35.9344 -11.7431 -20.6255
ltibia 14.0003
lfoot -6.68035 0.861347
ltoes -36.4651
375
root 11.5031 16.3363 11.5744 -151.531 1.88442 536.395
lowerback -26.7788 -2.28124 -5.18263
upperback -5.29115 -0.0867644 -1.16086
thorax 8.98786 0.403894 1.74587
lowerneck -0.0243355 -0.710488 -4.11674
upperneck 8.97513 -0.977178 7.05153
head 2.98379 -0.231142 3.04965
rclavicle -2.55935e-015 0
rhumerus -40.2688 -17.8546 -74.7321
rradius 22.7731
rwrist 7.60679
rhand -0.392948 -49.2177
rfingers 7.12502
rthumb 25.2139 -77.572
lclavicle -2.55935e-015 0
lhumerus -33.2434 -0.0604794 86.0488
lradius 18.6656
lwrist -3.87008
lhand -22.3074 -16.2146
lfingers 7.12502
lthumb 4.11194 13.7254
rfemur -31.8576 11.7888 15.3428
rtibia 17.8726
rfoot -24.7738 -10.7793
rtoes -20.1978
lfemur -35.6216 -11.5877 -20.7239
ltibia 13.6267
lfoot -6.43631 0.688386
ltoes -36.1884
376
root 11.5064 16.3372 11.5528 -151.563 1.80674 536.429
lowerback -26.9874 -2.28343 -5.19643
upperback -5.19556 -0.0776818 -1.15348
thorax 9.20086 0.396906 1.76502
lowerneck -0.0489567 -0.709755 -4.12623
upperneck 8.96367 -0.976663 7.05383
head 2.98462 -0.231551 3.05222
rclavicle -4.79568e-015 6.95746e-015
rhumerus -40.8968 -18.5827 -74.1192
rradius 22.3567
rwrist 8.16802
rhand -0.993773 -49.1795
rfingers 7.12502
rthumb 24.6382 -77.6136
lclavicle -4.79568e-015 6.95746e-015
lhumerus -33.6719 2.05996 84.8239
lradius 17.7153
lwrist -4.51764
lhand -22.1639 -15.8224
lfingers 7.12502
lthumb 4.25047 14.115
rfemur -31.6043 11.8027 15.4469
rtibia 17.6186
rfoot -24.7231 -10.8351
rtoes -20.0745
lfemur -35.3599 -11.3825 -20.7821
ltibia 13.3645
lfoot -6.24967 0.476244
ltoes -36.1877
377
root 11.5094 16.3382 11.5302 -151.526 1.68765 536.472
lowerback -27.2624 -2.30023 -5.21339
upperback -5.13609 -0.0731542 -1.13156
thorax 9.4075 0.393247 1.80149
lowerneck -0.0660865 -0.709051 -4.1222
upperneck 8.95777 -0.97568 7.05358
head 2.98568 -0.230935 3.0514
rclavicle -3.47873e-015 9.54166e-015
rhumerus -41.5984 -19.2576 -73.481
rradius 21.9243
rwrist 8.55674
rhand -0.386527 -50.2149
rfingers 7.12502
rthumb 25.2201 -78.5683
lclavicle -3.47873e-015 9.54166e-015
lhumerus -34.1968 4.01082 83.6152
lradius 16.7808
lwrist -5.19785
lhand -22.2483 -15.2296
lfingers 7.12502
lthumb 4.16897 14.7093
rfemur -31.3926 11.7255 15.5758
rtibia 17.3027
rfoot -24.5425 -10.9278
rtoes -20.5288
lfemur -35.1987 -11.1319 -20.832
ltibia 13.1571
lfoot -6.10895 0.163093
ltoes -36.5071
378
root 11.5111 16.3402 11.5068 -151.506 1.61317 536.508
lowerback -27.4642 -2.26485 -5.22772
upperback -5.1266 0.00197221 -1.13526
thorax 9.51596 0.429505 1.83271
lowerneck -0.10007 -0.722477 -4.11271
upperneck 8.95689 -0.99377 7.06054
head 2.99292 -0.238815 3.05187
rclavicle 1.00883e-014 -3.598e-014
rhumerus -42.4903 -20.0944 -72.6517
rradius 21.5003
rwrist 9.15508
rhand 1.58765 -52.5263
rfingers 7.12502
rthumb 27.1102 -80.5996
lclavicle 1.00883e-014 -3.598e-014
lhumerus -34.8792 5.48131 82.5444
lradius 16.0322
lwrist -5.76376
lhand -22.5403 -14.6614
lfingers 7.12502
lthumb 3.88705 15.2829
rfemur -31.1766 11.5708 15.7114
rtibia 17.0969
rfoot -24.4317 -10.8683
rtoes -20.8858
lfemur -35.0125 -10.9207 -20.8759
ltibia 12.9214
lfoot -5.99871 -0.0813348
ltoes -36.229
379
root 11.514 16.342 11.4865 -151.53 1.60587 536.442
lowerback -27.4897 -2.25207 -5.37641
upperback -5.17528 0.0780761 -1.14715
thorax 9.46931 0.469663 1.9321
lowerneck -0.150585 -0.737599 -4.111
upperneck 8.96113 -1.0143 7.06782
head 3.00529 -0.248024 3.05407
rclavicle -7.85199e-015 2.98177e-015
rhumerus -43.4895 -20.8826 -71.7365
rradius 21.1781
rwrist 9.87948
rhand -0.996276 -48.6297
rfingers 7.12502
rthumb 24.6358 -77.0641
lclavicle -7.85199e-015 2.98177e-015
lhumerus -35.7219 6.58526 81.5893
lradius 15.4523
lwrist -5.95594
lhand -22.5123 -14.4182
lfingers 7.12502
lthumb 3.91411 15.5256
rfemur -30.9205 11.2864 15.7567
rtibia 16.8582
rfoot -24.3843 -10.6364
rtoes -20.8429
lfemur -34.7959 -10.7892 -21.02
ltibia 12.6956
lfoot -5.93628 -0.248363
ltoes -35.8942
